<svg xmlns="http://www.w3.org/2000/svg"
     viewBox="0 0 24 24"
     role="img"
     aria-hidden="true"
     shape-rendering="geometricPrecision">
  <defs>
    <linearGradient id="monoGoldMed"
                    x1="2"
                    x2="22"
                    y1="2"
                    y2="22"
                    gradientUnits="userSpaceOnUse">
      <stop offset="0" stop-color="#c9aa5b" />
      <stop offset=".42" stop-color="#f0e4c4" />
      <stop offset=".78" stop-color="#a67c34" />
      <stop offset="1" stop-color="#6b4e24" />
    </linearGradient>
  </defs>
  <path fill="url(#monoGoldMed)"
        d="M13.54 12a6.8 6.8 0 01-6.77 6.82A6.8 6.8 0 010 12a6.8 6.8 0 016.77-6.82A6.8 6.8 0 0113.54 12zM20.96 12c0 3.54-1.51 6.42-3.38 6.42-1.87 0-3.39-2.88-3.39-6.42s1.52-6.42 3.39-6.42 3.38 2.88 3.38 6.42M24 12c0 3.17-.53 5.75-1.19 5.75-.66 0-1.19-2.58-1.19-5.75s.53-5.75 1.19-5.75C23.47 6.25 24 8.83 24 12z" />
</svg>
